<?xml version="1.0" encoding="UTF-8"?>
<svg xmlns="http://www.w3.org/2000/svg" style="display:none">
  <symbol id="icon-car" viewBox="0 0 512 512">
    <path fill="currentColor" d="M135.2 117.4l-26.1 74.6 293.8 0-26.1-74.6C372.3 104.6 360.2 96 346.6 96L165.4 96c-13.6 0-25.7 8.6-30.2 21.4zM39.6 196.8L74.8 96.3C88.3 57.8 124.6 32 165.4 32l181.2 0c40.8 0 77.1 25.8 90.6 64.3l35.2 100.5c23.2 9.6 39.6 32.5 39.6 59.2l0 192c0 17.7-14.3 32-32 32l-32 0c-17.7 0-32-14.3-32-32l0-32-320 0 0 32c0 17.7-14.3 32-32 32l-32 0c-17.7 0-32-14.3-32-32L0 256c0-26.7 16.4-49.6 39.6-59.2zM128 304a32 32 0 1 0 -64 0 32 32 0 1 0 64 0zm288 32a32 32 0 1 0 0-64 32 32 0 1 0 0 64z"/>
  </symbol>

  <symbol id="icon-laptop" viewBox="0 0 640 512">
    <path fill="currentColor" d="M64 96c0-35.3 28.7-64 64-64l384 0c35.3 0 64 28.7 64 64l0 240-64 0 0-240-384 0 0 240-64 0 0-240zM0 403.2C0 392.6 8.6 384 19.2 384l601.6 0c10.6 0 19.2 8.6 19.2 19.2 0 42.4-34.4 76.8-76.8 76.8L76.8 480C34.4 480 0 445.6 0 403.2zM281 209l-31 31 31 31c9.4 9.4 9.4 24.6 0 33.9s-24.6 9.4-33.9 0l-48-48c-9.4-9.4-9.4-24.6 0-33.9l48-48c9.4-9.4 24.6-9.4 33.9 0s9.4 24.6 0 33.9zM393 175l48 48c9.4 9.4 9.4 24.6 0 33.9l-48 48c-9.4 9.4-24.6 9.4-33.9 0s-9.4-24.6 0-33.9l31-31-31-31c-9.4-9.4-9.4-24.6 0-33.9s24.6-9.4 33.9 0z"/>
  </symbol>

  <symbol id="icon-check-circle" viewBox="0 0 512 512">
    <path fill="currentColor" d="M256 512a256 256 0 1 1 0-512 256 256 0 1 1 0 512zM374 145.7c-10.7-7.8-25.7-5.4-33.5 5.3L221.1 315.2 169 263.1c-9.4-9.4-24.6-9.4-33.9 0s-9.4 24.6 0 33.9l72 72c5 5 11.8 7.5 18.8 7s13.4-4.1 17.5-9.8L379.3 179.2c7.8-10.7 5.4-25.7-5.3-33.5z"/>
  </symbol>

  <symbol id="icon-linkedin" viewBox="0 0 448 512">
    <path fill="currentColor" d="M416 32L31.9 32C14.3 32 0 46.5 0 64.3L0 447.7C0 465.5 14.3 480 31.9 480L416 480c17.6 0 32-14.5 32-32.3l0-383.4C448 46.5 433.6 32 416 32zM135.4 416l-66.4 0 0-213.8 66.5 0 0 213.8-.1 0zM102.2 96a38.5 38.5 0 1 1 0 77 38.5 38.5 0 1 1 0-77zM384.3 416l-66.4 0 0-104c0-24.8-.5-56.7-34.5-56.7-34.6 0-39.9 27-39.9 54.9l0 105.8-66.4 0-0-213.8 63.7 0 0 29.2 .9 0c8.9-16.8 30.6-34.5 62.9-34.5 67.2 0 79.7 44.3 79.7 101.9l0 117.2z"/>
  </symbol>

  <symbol id="icon-arrow-up" viewBox="0 0 384 512">
    <path d="M214.6 9.4c-12.5-12.5-32.8-12.5-45.3 0l-160 160c-12.5 12.5-12.5 32.8 0 45.3s32.8 12.5 45.3 0L160 109.3 160 480c0 17.7 14.3 32 32 32s32-14.3 32-32l0-370.7 105.4 105.4c12.5 12.5 32.8 12.5 45.3 0s12.5-32.8 0-45.3l-160-160z" fill="white" />
  </symbol>

  <symbol id="icon-handshake" viewBox="0 0 576 512">
    <path fill="currentColor" d="M268.9 85.2L152.3 214.8c-4.6 5.1-4.4 13 .5 17.9 30.5 30.5 80 30.5 110.5 0l31.8-31.8c4.2-4.2 9.5-6.5 14.9-6.9 6.8-.6 13.8 1.7 19 6.9L505.6 376 576 320 576 32 464 96 440.2 80.1C424.4 69.6 405.9 64 386.9 64l-70.4 0c-1.1 0-2.3 0-3.4 .1-16.9 .9-32.8 8.5-44.2 21.1zM116.6 182.7L223.4 64 183.8 64c-25.5 0-49.9 10.1-67.9 28.1L112 96 0 32 0 320 156.4 450.3c23 19.2 52 29.7 81.9 29.7l15.7 0-7-7c-9.4-9.4-9.4-24.6 0-33.9s24.6-9.4 33.9 0l41 41 9 0c19.1 0 37.8-4.3 54.8-12.3L359 441c-9.4-9.4-9.4-24.6 0-33.9s24.6-9.4 33.9 0l32 32 17.5-17.5c8.9-8.9 11.5-21.8 7.6-33.1l-137.9-136.8-14.9 14.9c-49.3 49.3-129.1 49.3-178.4 0-23-23-23.9-59.9-2.2-84z"/>
  </symbol>

  <symbol id="icon-user-check" viewBox="0 0 640 512">
    <path fill="currentColor" d="M286 304c98.5 0 178.3 79.8 178.3 178.3 0 16.4-13.3 29.7-29.7 29.7L78 512c-16.4 0-29.7-13.3-29.7-29.7 0-98.5 79.8-178.3 178.3-178.3l59.4 0zM585.7 105.9c7.8-10.7 22.8-13.1 33.5-5.3s13.1 22.8 5.3 33.5L522.1 274.9c-4.2 5.7-10.7 9.4-17.7 9.8s-14-2.2-18.9-7.3l-46.4-48c-9.2-9.5-9-24.7 .6-33.9 9.5-9.2 24.7-8.9 33.9 .6l26.5 27.4 85.6-117.7zM256.3 248a120 120 0 1 1 0-240 120 120 0 1 1 0 240z"/>
  </symbol>

  <symbol id="icon-globe" viewBox="0 0 512 512">
    <path fill="currentColor" d="M351.9 280l-190.9 0c2.9 64.5 17.2 123.9 37.5 167.4 11.4 24.5 23.7 41.8 35.1 52.4 11.2 10.5 18.9 12.2 22.9 12.2s11.7-1.7 22.9-12.2c11.4-10.6 23.7-28 35.1-52.4 20.3-43.5 34.6-102.9 37.5-167.4zM160.9 232l190.9 0C349 167.5 334.7 108.1 314.4 64.6 303 40.2 290.7 22.8 279.3 12.2 268.1 1.7 260.4 0 256.4 0s-11.7 1.7-22.9 12.2c-11.4 10.6-23.7 28-35.1 52.4-20.3 43.5-34.6 102.9-37.5 167.4zm-48 0C116.4 146.4 138.5 66.9 170.8 14.7 78.7 47.3 10.9 131.2 1.5 232l111.4 0zM1.5 280c9.4 100.8 77.2 184.7 169.3 217.3-32.3-52.2-54.4-131.7-57.9-217.3L1.5 280zm398.4 0c-3.5 85.6-25.6 165.1-57.9 217.3 92.1-32.7 159.9-116.5 169.3-217.3l-111.4 0zm111.4-48C501.9 131.2 434.1 47.3 342 14.7 374.3 66.9 396.4 146.4 399.9 232l111.4 0z"/>
  </symbol>

  <symbol id="icon-truck" viewBox="0 0 576 512">
    <path fill="currentColor" d="M0 96C0 60.7 28.7 32 64 32l288 0c35.3 0 64 28.7 64 64l0 32 50.7 0c17 0 33.3 6.7 45.3 18.7L557.3 192c12 12 18.7 28.3 18.7 45.3L576 384c0 35.3-28.7 64-64 64l-3.3 0c-10.4 36.9-44.4 64-84.7 64s-74.2-27.1-84.7-64l-102.6 0c-10.4 36.9-44.4 64-84.7 64s-74.2-27.1-84.7-64L64 448c-35.3 0-64-28.7-64-64L0 96zM512 288l0-50.7-45.3-45.3-50.7 0 0 96 96 0zM192 424a40 40 0 1 0 -80 0 40 40 0 1 0 80 0zm232 40a40 40 0 1 0 0-80 40 40 0 1 0 0 80z"/>
  </symbol>

  <symbol id="icon-wind" viewBox="0 0 512 512">
    <path fill="currentColor" d="M288 32c0 17.7 14.3 32 32 32l40 0c13.3 0 24 10.7 24 24s-10.7 24-24 24L32 112c-17.7 0-32 14.3-32 32s14.3 32 32 32l328 0c48.6 0 88-39.4 88-88S408.6 0 360 0L320 0c-17.7 0-32 14.3-32 32zm64 352c0 17.7 14.3 32 32 32l32 0c53 0 96-43 96-96s-43-96-96-96L32 224c-17.7 0-32 14.3-32 32s14.3 32 32 32l384 0c17.7 0 32 14.3 32 32s-14.3 32-32 32l-32 0c-17.7 0-32 14.3-32 32zM128 512l40 0c48.6 0 88-39.4 88-88s-39.4-88-88-88L32 336c-17.7 0-32 14.3-32 32s14.3 32 32 32l136 0c13.3 0 24 10.7 24 24s-10.7 24-24 24l-40 0c-17.7 0-32 14.3-32 32s14.3 32 32 32z"/>
  </symbol>

  <symbol id="icon-chair" viewBox="0 0 448 512">
    <path fill="currentColor" d="M152 256l0-181.8c-24.5 20.5-40 51.4-40 85.8l0 96 40 0zm48 0l48 0 0-205.4c-7.7-1.7-15.8-2.6-24-2.6s-16.3 .9-24 2.6L200 256zM296 74.2l0 181.8 40 0 0-96c0-34.4-15.5-65.2-40-85.8zM32 256l32 0 0-96C64 71.6 135.6 0 224 0S384 71.6 384 160l0 96 32 0c17.7 0 32 14.3 32 32l0 64c0 17.7-14.3 32-32 32l0 96c0 17.7-14.3 32-32 32s-32-14.3-32-32l0-96-256 0 0 96c0 17.7-14.3 32-32 32s-32-14.3-32-32l0-96c-17.7 0-32-14.3-32-32l0-64c0-17.7 14.3-32 32-32z"/>
  </symbol>

  <symbol id="icon-plane" viewBox="0 0 576 512">
    <path fill="currentColor" d="M520 200c30.9 0 56 25.1 56 56s-25.1 56-56 56l-127.3 0-159.2 173.6c-6.1 6.6-14.6 10.4-23.6 10.4l-43.7 0c-10.9 0-18.6-10.7-15.2-21.1l54.3-162.9-99.7 0-52.8 66c-3 3.8-7.6 6-12.5 6l-19.8 0c-10.4 0-18-9.8-15.5-19.9L32 256 5 147.9C2.4 137.8 10.1 128 20.5 128l19.8 0c4.9 0 9.5 2.2 12.5 6l52.8 66 99.7 0-54.3-162.9C147.6 26.7 155.3 16 166.2 16l43.7 0c9 0 17.5 3.8 23.6 10.4L392.7 200 520 200z"/>
  </symbol>

  <symbol id="icon-bolt" viewBox="0 0 448 512">
    <path fill="currentColor" d="M338.8-9.9c11.9 8.6 16.3 24.2 10.9 37.8L271.3 224 416 224c13.5 0 25.5 8.4 30.1 21.1s.7 26.9-9.6 35.5l-288 240c-11.3 9.4-27.4 9.9-39.3 1.3s-16.3-24.2-10.9-37.8L176.7 288 32 288c-13.5 0-25.5-8.4-30.1-21.1s-.7-26.9 9.6-35.5l288-240c11.3-9.4 27.4-9.9 39.3-1.3z"/>
  </symbol>

  <symbol id="icon-project-diagram" viewBox="0 0 512 512">
    <path fill="currentColor" d="M0 80C0 53.5 21.5 32 48 32l96 0c26.5 0 48 21.5 48 48l0 16 128 0 0-16c0-26.5 21.5-48 48-48l96 0c26.5 0 48 21.5 48 48l0 96c0 26.5-21.5 48-48 48l-96 0c-26.5 0-48-21.5-48-48l0-16-128 0 0 16c0 7.3-1.7 14.3-4.6 20.5l68.6 91.5 80 0c26.5 0 48 21.5 48 48l0 96c0 26.5-21.5 48-48 48l-96 0c-26.5 0-48-21.5-48-48l0-96c0-7.3 1.7-14.3 4.6-20.5L128 224 48 224c-26.5 0-48-21.5-48-48L0 80z"/>
  </symbol>

  <symbol id="icon-check" viewBox="0 0 448 512">
    <path fill="currentColor" d="M434.8 70.1c14.3 10.4 17.5 30.4 7.1 44.7l-256 352c-5.5 7.6-14.0 12.3-23.4 13.1s-18.5-2.7-25.1-9.3l-128-128c-12.5-12.5-12.5-32.8 0-45.3s32.8-12.5 45.3 0l101.5 101.5 234-321.7c10.4-14.3 30.4-17.5 44.7-7.1z"/>
  </symbol>
  
  <symbol id="icon-drafting-compass" viewBox="0 0 512 512">
    <path fill="currentColor" d="M99.3 256.1l69.4-119.9c-5.6-12.2-8.8-25.8-8.8-40.2 0-53 43-96 96-96s96 43 96 96c0 14.3-3.1 27.9-8.8 40.2l44.4 76.7c-23.1 26-53.7 45.1-88.4 53.8L256 191.9 187.9 309.5c21.5 6.8 44.3 10.5 68.1 10.5 70.7 0 133.8-32.7 174.9-84 11.1-13.8 31.2-16 45-5s16 31.2 5 45c-52.7 65.8-133.9 108-224.8 108-35.4 0-69.4-6.4-100.7-18.1L98.7 463.7C94 471.8 87 478.4 78.6 482.6L23.2 510.3c-5 2.5-10.9 2.2-15.6-.7S0 501.5 0 496l0-55.4c0-8.4 2.2-16.7 6.5-24.1l60-103.7c-12.8-11.2-24.6-23.5-35.3-36.8-11.1-13.8-8.8-33.9 5-45s33.9-8.8 45 5c5.7 7.1 11.8 13.8 18.2 20.1zM381.1 407.9c32.5-13 62.4-31 88.9-52.9l35.6 61.5c4.2 7.3 6.5 15.6 6.5 24.1l0 55.4c0 5.5-2.9 10.7-7.6 13.6s-10.6 3.2-15.6 .7l-55.4-27.7c-8.4-4.2-15.4-10.8-20.1-18.9l-32.3-55.8zM256 128a32 32 0 1 0 0-64 32 32 0 1 0 0 64z"/>
  </symbol>

  <symbol id="icon-shopping-cart" viewBox="0 0 640 512">
    <path fill="currentColor" d="M24-16C10.7-16 0-5.3 0 8S10.7 32 24 32l45.3 0c3.9 0 7.2 2.8 7.9 6.6l52.1 286.3c6.2 34.2 36 59.1 70.8 59.1L456 384c13.3 0 24-10.7 24-24s-10.7-24-24-24l-255.9 0c-11.6 0-21.5-8.3-23.6-19.7l-5.1-28.3 303.6 0c30.8 0 57.2-21.9 62.9-52.2L568.9 69.9C572.6 50.2 557.5 32 537.4 32l-412.7 0-.4-2c-4.8-26.6-28-46-55.1-46L24-16zM208 512a48 48 0 1 0 0-96 48 48 0 1 0 0 96zm224 0a48 48 0 1 0 0-96 48 48 0 1 0 0 96z"/>
  </symbol>

  <symbol id="icon-tasks" viewBox="0 0 512 512">
    <path fill="currentColor" d="M133.8 36.3c10.9 7.6 13.5 22.6 5.9 33.4l-56 80c-4.1 5.8-10.5 9.5-17.6 10.1S52 158 47 153L7 113C-2.3 103.6-2.3 88.4 7 79S31.6 69.7 41 79l19.8 19.8 39.6-56.6c7.6-10.9 22.6-13.5 33.4-5.9zm0 160c10.9 7.6 13.5 22.6 5.9 33.4l-56 80c-4.1 5.8-10.5 9.5-17.6 10.1S52 318 47 313L7 273c-9.4-9.4-9.4-24.6 0-33.9s24.6-9.4 33.9 0l19.8 19.8 39.6-56.6c7.6-10.9 22.6-13.5 33.4-5.9zM224 96c0-17.7 14.3-32 32-32l224 0c17.7 0 32 14.3 32 32s-14.3 32-32 32l-224 0c-17.7 0-32-14.3-32-32zm0 160c0-17.7 14.3-32 32-32l224 0c17.7 0 32 14.3 32 32s-14.3 32-32 32l-224 0c-17.7 0-32-14.3-32-32zM160 416c0-17.7 14.3-32 32-32l288 0c17.7 0 32 14.3 32 32s-14.3 32-32 32l-288 0c-17.7 0-32-14.3-32-32zM64 376a40 40 0 1 1 0 80 40 40 0 1 1 0-80z"/>
  </symbol>

  <symbol id="icon-sync-alt" viewBox="0 0 512 512">
    <path fill="currentColor" d="M480.1 192l7.9 0c13.3 0 24-10.7 24-24l0-144c0-9.7-5.8-18.5-14.8-22.2S477.9 .2 471 7L419.3 58.8C375 22.1 318 0 256 0 127 0 20.3 95.4 2.6 219.5 .1 237 12.2 253.2 29.7 255.7s33.7-9.7 36.2-27.1C79.2 135.5 159.3 64 256 64 300.4 64 341.2 79 373.7 104.3L327 151c-6.9 6.9-8.9 17.2-5.2 26.2S334.3 192 344 192l136.1 0zm29.4 100.5c2.5-17.5-9.7-33.7-27.1-36.2s-33.7 9.7-36.2 27.1c-13.3 93-93.4 164.5-190.1 164.5-44.4 0-85.2-15-117.7-40.3L185 361c6.9-6.9 8.9-17.2 5.2-26.2S177.7 320 168 320L24 320c-13.3 0-24 10.7-24 24L0 488c0 9.7 5.8 18.5 14.8 22.2S34.1 511.8 41 505l51.8-51.8C137 489.9 194 512 256 512 385 512 491.7 416.6 509.4 292.5z"/>
  </symbol>

  <symbol id="icon-paper-plane" viewBox="0 0 576 512">
    <path fill="currentColor" d="M536.4-26.3c9.8-3.5 20.6-1 28 6.3s9.8 18.2 6.3 28l-178 496.9c-5 13.9-18.1 23.1-32.8 23.1-14.2 0-27-8.6-32.3-21.7l-64.2-158c-4.5-11-2.5-23.6 5.2-32.6l94.5-112.4c5.1-6.1 4.7-15-.9-20.6s-14.6-6-20.6-.9L229.2 276.1c-9.1 7.6-21.6 9.6-32.6 5.2L38.1 216.8c-13.1-5.3-21.7-18.1-21.7-32.3 0-14.7 9.2-27.8 23.1-32.8l496.9-178z"/>
  </symbol>
</svg>
